# xmcd
#
# Track frame offsets: 
#        150
#        22492
#        37144
#        51915
#        62772
#        88512
#        100340
#        112390
#        129451
#        140960
#        156108
#        166912
#        188044
#
# Disc length: 2887 seconds
#
# Revision: 0
# Processed by: cddbd v1.5.2PL0 Copyright (c) Steve Scherf et al.
# Submitted via: ExactAudioCopy v1.3
#
DISCID=c50b450d
DTITLE=Big Joe and the Dynaflows - Rockhouse Party
DYEAR=2019
DGENRE=Blues
TTITLE0=Driving Wheel
TTITLE1=So Mean To Me
TTITLE2=8 Men 4 Women
TTITLE3=Go On Fool
TTITLE4=World Gone Wrong
TTITLE5=If You Need Some Lovin'
TTITLE6=Overdrive
TTITLE7=Tennessee Woman
TTITLE8=Go With The Flow
TTITLE9=I'm A Country Boy
TTITLE10=Vibrate
TTITLE11=Sleepy Joe
TTITLE12=Two Years Of Torture
EXTD=
EXTT0=
EXTT1=
EXTT2=
EXTT3=
EXTT4=
EXTT5=
EXTT6=
EXTT7=
EXTT8=
EXTT9=
EXTT10=
EXTT11=
EXTT12=
PLAYORDER=
